<?xml version="1.0" encoding="utf-8"?>
<!-- Generator: Adobe Illustrator 24.2.1, SVG Export Plug-In . SVG Version: 6.00 Build 0)  -->
<svg version="1.1" id="Layer_1" xmlns="http://www.w3.org/2000/svg" xmlns:xlink="http://www.w3.org/1999/xlink" x="0px" y="0px"
	 viewBox="0 0 1190.6 306.1" style="enable-background:new 0 0 1190.6 306.1;" xml:space="preserve">
<style type="text/css">
	.st0{fill:#406CB2;}
	.st1{fill:#E22729;}
	.st2{fill:#6ABD45;}
	.st3{fill:none;stroke:#6ABD45;stroke-width:0.5;stroke-miterlimit:10;}
</style>
<g>
	<circle class="st0" cx="65.6" cy="159.4" r="21.7"/>
	<circle class="st0" cx="87.3" cy="159.4" r="21.7"/>
	<circle class="st0" cx="109" cy="159.4" r="21.7"/>
	<circle class="st0" cx="637.1" cy="159.4" r="21.7"/>
	<circle class="st0" cx="167.7" cy="159.4" r="21.7"/>
	<circle class="st0" cx="335.2" cy="159.4" r="21.7"/>
	<circle class="st0" cx="429.7" cy="159.4" r="21.7"/>
	<circle class="st0" cx="473.1" cy="159.4" r="21.7"/>
	<circle class="st0" cx="494.7" cy="159.4" r="21.7"/>
	<circle class="st0" cx="772.1" cy="159.4" r="21.7"/>
	<circle class="st0" cx="1125" cy="159.4" r="21.7"/>
	<circle class="st0" cx="837.1" cy="159.4" r="21.7"/>
	<circle class="st0" cx="858.8" cy="159.4" r="21.7"/>
	<circle class="st1" cx="241.8" cy="159.4" r="35.8"/>
	<circle class="st1" cx="277.7" cy="159.4" r="35.8"/>
	<circle class="st1" cx="568.2" cy="159.4" r="35.8"/>
	<circle class="st1" cx="694.6" cy="159.4" r="35.8"/>
	<circle class="st1" cx="983.3" cy="159.4" r="35.8"/>
	<circle class="st1" cx="1067.5" cy="159.4" r="35.8"/>
	<circle class="st1" cx="947.5" cy="159.4" r="35.8"/>
	<g>
		<path class="st2" d="M78.8,231.8h1.8v4.8h13.5v-0.2l-3.9-4.2l1.3-1.2l4.2,4.4v3.1h-15v4.4h-1.8V231.8z"/>
		<path class="st2" d="M78.8,257.1v-11.2h2.1l5,5.6c0.7,0.8,1.5,1.5,2.3,2c0.8,0.5,1.6,0.8,2.5,0.8h0.3c1,0,1.8-0.3,2.3-0.8
			s0.8-1.3,0.8-2.4c0-1-0.3-1.8-0.8-2.4c-0.5-0.6-1.2-1-2.1-1.2l0.7-1.8c0.5,0.2,1,0.4,1.5,0.7c0.5,0.3,0.9,0.6,1.3,1.1
			c0.4,0.4,0.7,1,0.9,1.6c0.2,0.6,0.3,1.3,0.3,2.1c0,0.8-0.1,1.6-0.4,2.2c-0.2,0.6-0.6,1.2-1,1.6s-0.9,0.8-1.5,1
			c-0.6,0.2-1.2,0.3-1.9,0.3c-0.6,0-1.2-0.1-1.8-0.3c-0.6-0.2-1.1-0.4-1.6-0.8c-0.5-0.3-1-0.7-1.5-1.2c-0.5-0.5-1-1-1.5-1.5
			l-4.1-4.7v9.1H78.8z"/>
		<path class="st2" d="M78.8,267.7h3.3v-8.3h1.8l11.7,7.2v2.9H83.7v2.5h-1.7v-2.5h-3.3V267.7z M83.7,261.2v6.5H94v-0.1L83.7,261.2z"
			/>
	</g>
	<g>
		<path class="st2" d="M421.3,239.3h3.3v-8.3h1.8l11.7,7.2v2.9h-11.8v2.5h-1.7v-2.5h-3.3V239.3z M426.3,232.9v6.5h10.2v-0.1
			L426.3,232.9z"/>
		<path class="st2" d="M431.9,257.5c-1.2,0-2.4-0.2-3.5-0.6s-2.1-0.9-3-1.5c-0.9-0.6-1.7-1.2-2.4-2c-0.7-0.7-1.3-1.4-1.7-2.1v-2.6
			c0.7,0.9,1.3,1.7,1.9,2.4c0.6,0.7,1.3,1.3,2,1.9c0.7,0.5,1.4,1,2.2,1.4c0.8,0.4,1.7,0.7,2.6,0.9l0-0.1c-0.7-0.4-1.3-0.9-1.7-1.6
			c-0.5-0.6-0.7-1.5-0.7-2.5c0-0.7,0.1-1.4,0.4-2c0.2-0.6,0.6-1.1,1-1.6c0.4-0.4,1-0.8,1.6-1c0.6-0.2,1.3-0.4,2.1-0.4
			c0.8,0,1.6,0.1,2.2,0.4c0.7,0.3,1.3,0.6,1.8,1.1c0.5,0.5,0.9,1.1,1.1,1.8c0.3,0.7,0.4,1.5,0.4,2.3c0,0.9-0.1,1.7-0.4,2.4
			s-0.7,1.3-1.3,1.8c-0.6,0.5-1.2,0.9-2,1.1C433.8,257.4,432.9,257.5,431.9,257.5z M429.3,251.9c0,1.2,0.3,2,0.9,2.7
			c0.6,0.6,1.5,0.9,2.6,0.9h0.2c1.1,0,2-0.3,2.6-0.9c0.6-0.6,0.9-1.5,0.9-2.7c0-1.2-0.3-2-0.9-2.7c-0.6-0.6-1.5-0.9-2.6-0.9h-0.2
			c-1.1,0-2,0.3-2.6,0.9C429.6,249.8,429.3,250.7,429.3,251.9z"/>
		<path class="st2" d="M421,266.3c0-1,0.1-1.8,0.4-2.6s0.6-1.3,1-1.8c0.4-0.5,0.9-0.9,1.5-1.1s1.2-0.4,1.9-0.4
			c1.2,0,2.1,0.3,2.7,0.9s1.1,1.4,1.4,2.5h0.2c0.3-0.9,0.8-1.6,1.5-2.1c0.7-0.5,1.5-0.8,2.5-0.8c1.3,0,2.3,0.5,3.1,1.4
			c0.8,0.9,1.1,2.3,1.1,4c0,1.7-0.4,3-1.1,4c-0.8,0.9-1.8,1.4-3.1,1.4c-1,0-1.8-0.3-2.5-0.8s-1.2-1.2-1.5-2.1H430
			c-0.3,1-0.7,1.8-1.4,2.5s-1.6,0.9-2.7,0.9c-0.7,0-1.3-0.1-1.9-0.4s-1.1-0.6-1.5-1.1c-0.4-0.5-0.8-1.1-1-1.8S421,267.2,421,266.3z
			 M422.7,266.3c0,1.2,0.3,2.1,0.8,2.8s1.3,1,2.2,1h0.5c1,0,1.7-0.3,2.2-1c0.5-0.7,0.8-1.6,0.8-2.8c0-1.2-0.3-2.1-0.8-2.8
			c-0.5-0.7-1.3-1-2.2-1h-0.5c-1,0-1.7,0.3-2.2,1S422.7,265.1,422.7,266.3z M430.9,266.3c0,1.1,0.2,1.9,0.7,2.5
			c0.5,0.6,1.1,0.9,2,0.9h0.3c0.9,0,1.5-0.3,2-0.9c0.5-0.6,0.7-1.4,0.7-2.5c0-1.1-0.2-1.9-0.7-2.5c-0.5-0.6-1.1-0.9-2-0.9h-0.3
			c-0.9,0-1.5,0.3-2,0.9C431.2,264.3,430.9,265.2,430.9,266.3z"/>
	</g>
	<g>
		<path class="st2" d="M1059.1,233.7l15,6.6v-7.3h-3.1v-1.8h4.9v11.2h-1.8l-15-6.4V233.7z"/>
		<path class="st2" d="M1074.1,255.9v-7.5l-6.4-0.5v0.2c0.6,0.4,1,0.9,1.3,1.4c0.3,0.5,0.5,1.2,0.5,2.1c0,0.7-0.1,1.4-0.3,2
			c-0.2,0.6-0.6,1.1-1,1.6c-0.4,0.4-1,0.8-1.6,1.1c-0.6,0.3-1.4,0.4-2.2,0.4c-0.8,0-1.6-0.1-2.2-0.4c-0.7-0.3-1.3-0.6-1.8-1.1
			s-0.9-1.1-1.1-1.8c-0.3-0.7-0.4-1.5-0.4-2.4c0-0.7,0.1-1.3,0.2-1.9c0.2-0.6,0.4-1,0.6-1.5c0.3-0.4,0.6-0.8,0.9-1.1
			c0.3-0.3,0.7-0.6,1.1-0.9l1.2,1.5c-0.3,0.2-0.6,0.5-0.9,0.7c-0.3,0.2-0.5,0.5-0.7,0.8c-0.2,0.3-0.4,0.6-0.5,1
			c-0.1,0.4-0.2,0.8-0.2,1.3c0,1.2,0.3,2,0.9,2.7s1.5,0.9,2.6,0.9h0.2c1.1,0,2-0.3,2.6-0.9s0.9-1.5,0.9-2.7c0-0.8-0.1-1.4-0.4-1.9
			c-0.3-0.4-0.6-0.8-1-1.2l0.2-1.7l9.2,0.6v9.1H1074.1z"/>
		<path class="st2" d="M1069.7,271.2c-1.2,0-2.4-0.2-3.5-0.6s-2.1-0.9-3-1.5c-0.9-0.6-1.7-1.2-2.4-2c-0.7-0.7-1.3-1.4-1.7-2.1v-2.6
			c0.7,0.9,1.3,1.7,1.9,2.4c0.6,0.7,1.3,1.3,2,1.9c0.7,0.5,1.4,1,2.2,1.4c0.8,0.4,1.7,0.7,2.6,0.9l0-0.1c-0.7-0.4-1.3-0.9-1.7-1.6
			c-0.5-0.6-0.7-1.5-0.7-2.5c0-0.7,0.1-1.4,0.4-2c0.2-0.6,0.6-1.1,1-1.6c0.4-0.4,1-0.8,1.6-1c0.6-0.2,1.3-0.4,2.1-0.4
			c0.8,0,1.6,0.1,2.2,0.4c0.7,0.3,1.3,0.6,1.8,1.1c0.5,0.5,0.9,1.1,1.1,1.8c0.3,0.7,0.4,1.5,0.4,2.3c0,0.9-0.1,1.7-0.4,2.4
			s-0.7,1.3-1.3,1.8c-0.6,0.5-1.2,0.9-2,1.1C1071.6,271.1,1070.7,271.2,1069.7,271.2z M1067.1,265.5c0,1.2,0.3,2,0.9,2.7
			c0.6,0.6,1.5,0.9,2.6,0.9h0.2c1.1,0,2-0.3,2.6-0.9c0.6-0.6,0.9-1.5,0.9-2.7c0-1.2-0.3-2-0.9-2.7c-0.6-0.6-1.5-0.9-2.6-0.9h-0.2
			c-1.1,0-2,0.3-2.6,0.9C1067.4,263.5,1067.1,264.4,1067.1,265.5z"/>
	</g>
	<g>
		<path class="st2" d="M688,63.3v7.5l6.4,0.5v-0.2c-0.6-0.4-1-0.9-1.3-1.4c-0.3-0.5-0.5-1.2-0.5-2.1c0-0.7,0.1-1.4,0.3-2
			c0.2-0.6,0.6-1.1,1-1.6c0.4-0.4,1-0.8,1.6-1.1c0.6-0.3,1.4-0.4,2.2-0.4c0.8,0,1.6,0.1,2.2,0.4c0.7,0.3,1.3,0.6,1.8,1.1
			s0.9,1.1,1.1,1.8c0.3,0.7,0.4,1.5,0.4,2.4c0,0.7-0.1,1.3-0.2,1.9c-0.2,0.6-0.4,1-0.6,1.5c-0.3,0.4-0.6,0.8-0.9,1.1
			c-0.3,0.3-0.7,0.6-1.1,0.9l-1.2-1.5c0.3-0.2,0.6-0.5,0.9-0.7c0.3-0.2,0.5-0.5,0.7-0.8c0.2-0.3,0.4-0.6,0.5-1
			c0.1-0.4,0.2-0.8,0.2-1.3c0-1.2-0.3-2-0.9-2.7s-1.5-0.9-2.6-0.9h-0.2c-1.1,0-2,0.3-2.6,0.9s-0.9,1.5-0.9,2.7
			c0,0.8,0.1,1.4,0.4,1.9c0.3,0.4,0.6,0.8,1,1.2l-0.2,1.7l-9.2-0.6v-9.1H688z"/>
		<path class="st2" d="M703,48v11.2h-2.1l-5-5.6c-0.7-0.8-1.5-1.5-2.3-2c-0.8-0.5-1.6-0.8-2.5-0.8h-0.3c-1,0-1.8,0.3-2.3,0.8
			s-0.8,1.3-0.8,2.4c0,1,0.3,1.8,0.8,2.4c0.5,0.6,1.2,1,2.1,1.2l-0.7,1.8c-0.5-0.2-1-0.4-1.5-0.7c-0.5-0.3-0.9-0.6-1.3-1.1
			c-0.4-0.4-0.7-1-0.9-1.6c-0.2-0.6-0.3-1.3-0.3-2.1c0-0.8,0.1-1.6,0.4-2.2c0.2-0.6,0.6-1.2,1-1.6s0.9-0.8,1.5-1
			c0.6-0.2,1.2-0.3,1.9-0.3c0.6,0,1.2,0.1,1.8,0.3c0.6,0.2,1.1,0.4,1.6,0.8c0.5,0.3,1,0.7,1.5,1.2c0.5,0.5,1,1,1.5,1.5l4.1,4.7V48
			H703z"/>
		<path class="st2" d="M703,37.4h-3.3v8.3h-1.8l-11.7-7.2v-2.9H698V33h1.7v2.5h3.3V37.4z M698,43.9v-6.5h-10.2v0.1L698,43.9z"/>
	</g>
	<g>
		<path class="st2" d="M250.2,72.8h-1.8V68H235v0.2l3.9,4.2l-1.3,1.2l-4.2-4.4V66h15v-4.4h1.8V72.8z"/>
		<path class="st2" d="M250.2,56.3l-15-6.6v7.3h3.1v1.8h-4.9V47.7h1.8l15,6.4V56.3z"/>
		<path class="st2" d="M250.5,38.8c0,1-0.1,1.8-0.4,2.6s-0.6,1.3-1,1.8c-0.4,0.5-0.9,0.9-1.5,1.1s-1.2,0.4-1.9,0.4
			c-1.2,0-2.1-0.3-2.7-0.9s-1.1-1.4-1.4-2.5h-0.2c-0.3,0.9-0.8,1.6-1.5,2.1c-0.7,0.5-1.5,0.8-2.5,0.8c-1.3,0-2.3-0.5-3.1-1.4
			c-0.8-0.9-1.1-2.3-1.1-4c0-1.7,0.4-3,1.1-4c0.8-0.9,1.8-1.4,3.1-1.4c1,0,1.8,0.3,2.5,0.8s1.2,1.2,1.5,2.1h0.2
			c0.3-1,0.7-1.8,1.4-2.5s1.6-0.9,2.7-0.9c0.7,0,1.3,0.1,1.9,0.4s1.1,0.6,1.5,1.1s0.8,1.1,1,1.8S250.5,37.9,250.5,38.8z M248.8,38.8
			c0-1.2-0.3-2.1-0.8-2.8c-0.5-0.7-1.3-1-2.2-1h-0.5c-1,0-1.7,0.3-2.2,1c-0.5,0.7-0.8,1.6-0.8,2.8c0,1.2,0.3,2.1,0.8,2.8
			s1.3,1,2.2,1h0.5c1,0,1.7-0.3,2.2-1C248.5,40.9,248.8,40,248.8,38.8z M240.6,38.8c0-1.1-0.2-1.9-0.7-2.5c-0.5-0.6-1.1-0.9-2-0.9
			h-0.3c-0.9,0-1.5,0.3-2,0.9c-0.5,0.6-0.7,1.4-0.7,2.5c0,1.1,0.2,1.9,0.7,2.5c0.5,0.6,1.1,0.9,2,0.9h0.3c0.9,0,1.5-0.3,2-0.9
			C240.4,40.7,240.6,39.9,240.6,38.8z"/>
		<path class="st2" d="M239.6,18.8c1.2,0,2.4,0.2,3.5,0.6s2.1,0.9,3,1.5c0.9,0.6,1.7,1.2,2.4,2c0.7,0.7,1.3,1.4,1.7,2.1v2.6
			c-0.7-0.9-1.3-1.7-1.9-2.4c-0.6-0.7-1.3-1.3-2-1.9s-1.4-1-2.2-1.4c-0.8-0.4-1.7-0.7-2.6-0.9l0,0.1c0.7,0.4,1.3,0.9,1.7,1.6
			s0.7,1.5,0.7,2.5c0,0.7-0.1,1.4-0.4,2c-0.2,0.6-0.6,1.1-1,1.6c-0.4,0.4-1,0.8-1.6,1c-0.6,0.2-1.3,0.4-2.1,0.4
			c-0.8,0-1.6-0.1-2.2-0.4c-0.7-0.3-1.3-0.6-1.8-1.1c-0.5-0.5-0.9-1.1-1.1-1.8c-0.3-0.7-0.4-1.5-0.4-2.3c0-0.9,0.1-1.7,0.4-2.4
			c0.3-0.7,0.7-1.3,1.3-1.8c0.6-0.5,1.2-0.9,2-1.1C237.7,18.9,238.6,18.8,239.6,18.8z M242.2,24.4c0-1.2-0.3-2-0.9-2.7
			c-0.6-0.6-1.5-0.9-2.6-0.9h-0.2c-1.1,0-2,0.3-2.6,0.9c-0.6,0.6-0.9,1.5-0.9,2.7c0,1.2,0.3,2,0.9,2.7c0.6,0.6,1.5,0.9,2.6,0.9h0.2
			c1.1,0,2-0.3,2.6-0.9C241.9,26.5,242.2,25.6,242.2,24.4z"/>
	</g>
	<g>
		<path class="st2" d="M763.7,242.4v-11.2h2.1l5,5.6c0.7,0.8,1.5,1.5,2.3,2c0.8,0.5,1.6,0.8,2.5,0.8h0.3c1,0,1.8-0.3,2.3-0.8
			s0.8-1.3,0.8-2.4c0-1-0.3-1.8-0.8-2.4c-0.5-0.6-1.2-1-2.1-1.2l0.7-1.8c0.5,0.2,1,0.4,1.5,0.7c0.5,0.3,0.9,0.6,1.3,1.1
			c0.4,0.4,0.7,1,0.9,1.6c0.2,0.6,0.3,1.3,0.3,2.1c0,0.8-0.1,1.6-0.4,2.2c-0.2,0.6-0.6,1.2-1,1.6s-0.9,0.8-1.5,1
			c-0.6,0.2-1.2,0.3-1.9,0.3c-0.6,0-1.2-0.1-1.8-0.3c-0.6-0.2-1.1-0.4-1.6-0.8c-0.5-0.3-1-0.7-1.5-1.2c-0.5-0.5-1-1-1.5-1.5
			l-4.1-4.7v9.1H763.7z"/>
		<path class="st2" d="M763.4,251.1c0-1,0.2-1.9,0.6-2.6c0.4-0.7,1-1.3,1.7-1.8c0.7-0.5,1.6-0.8,2.7-1.1c1.1-0.2,2.3-0.3,3.7-0.3
			c1.4,0,2.6,0.1,3.7,0.3c1.1,0.2,2,0.6,2.7,1.1s1.3,1.1,1.7,1.8c0.4,0.7,0.6,1.6,0.6,2.6c0,1-0.2,1.9-0.6,2.6
			c-0.4,0.7-1,1.3-1.7,1.8c-0.7,0.5-1.6,0.8-2.7,1.1c-1.1,0.2-2.3,0.3-3.7,0.3c-1.4,0-2.6-0.1-3.7-0.3c-1.1-0.2-2-0.6-2.7-1.1
			c-0.7-0.5-1.3-1.1-1.7-1.8S763.4,252.1,763.4,251.1z M765.2,251.1c0,0.7,0.1,1.2,0.4,1.7c0.3,0.5,0.6,0.9,1.1,1.2
			c0.5,0.3,1.1,0.5,1.7,0.7s1.4,0.2,2.3,0.2h2.7c0.8,0,1.6-0.1,2.3-0.2c0.7-0.1,1.3-0.4,1.8-0.7c0.5-0.3,0.9-0.7,1.1-1.2
			c0.3-0.5,0.4-1.1,0.4-1.7c0-0.7-0.1-1.2-0.4-1.7c-0.3-0.5-0.6-0.9-1.1-1.2c-0.5-0.3-1.1-0.5-1.8-0.7c-0.7-0.1-1.4-0.2-2.3-0.2
			h-2.7c-0.8,0-1.6,0.1-2.3,0.2s-1.3,0.4-1.7,0.7c-0.5,0.3-0.9,0.7-1.1,1.2C765.3,249.9,765.2,250.4,765.2,251.1z M770.7,251.1
			c0-0.6,0.1-0.9,0.3-1.2c0.2-0.2,0.5-0.3,0.8-0.3h0.5c0.3,0,0.6,0.1,0.8,0.3c0.2,0.2,0.3,0.6,0.3,1.2c0,0.6-0.1,0.9-0.3,1.2
			c-0.2,0.2-0.5,0.3-0.8,0.3h-0.5c-0.3,0-0.6-0.1-0.8-0.3C770.8,252.1,770.7,251.7,770.7,251.1z"/>
		<path class="st2" d="M763.4,265.5c0-0.9,0.1-1.7,0.4-2.4c0.3-0.7,0.7-1.3,1.3-1.8c0.6-0.5,1.2-0.9,2-1.1c0.8-0.3,1.7-0.4,2.7-0.4
			c1.2,0,2.4,0.2,3.5,0.6c1.1,0.4,2.1,0.9,3,1.4c0.9,0.6,1.7,1.2,2.4,2c0.7,0.7,1.3,1.4,1.7,2.1v2.6c-0.7-0.9-1.3-1.7-1.9-2.4
			c-0.6-0.7-1.3-1.3-2-1.9c-0.7-0.5-1.4-1-2.2-1.4c-0.8-0.4-1.7-0.7-2.6-0.9l0,0.1c0.7,0.4,1.3,0.9,1.7,1.6c0.5,0.7,0.7,1.5,0.7,2.5
			c0,0.7-0.1,1.4-0.4,2c-0.2,0.6-0.6,1.1-1,1.6c-0.4,0.4-1,0.8-1.6,1c-0.6,0.2-1.4,0.4-2.1,0.4c-0.8,0-1.6-0.1-2.2-0.4
			c-0.7-0.3-1.3-0.7-1.8-1.1c-0.5-0.5-0.9-1.1-1.1-1.8C763.5,267.2,763.4,266.4,763.4,265.5z M765.1,265.5c0,1.2,0.3,2,0.9,2.7
			c0.6,0.6,1.5,0.9,2.6,0.9h0.2c1.1,0,2-0.3,2.6-0.9c0.6-0.6,0.9-1.5,0.9-2.7c0-1.2-0.3-2-0.9-2.7c-0.6-0.6-1.5-0.9-2.6-0.9h-0.2
			c-1.1,0-2,0.3-2.6,0.9C765.4,263.5,765.1,264.4,765.1,265.5z"/>
	</g>
	<line class="st3" x1="694.6" y1="80.1" x2="694.6" y2="115.2"/>
	<line class="st3" x1="242.2" y1="80.1" x2="242.2" y2="115.2"/>
	<line class="st3" x1="87.2" y1="188.5" x2="87.2" y2="223.6"/>
	<line class="st3" x1="429.7" y1="188.5" x2="429.7" y2="223.6"/>
	<line class="st3" x1="772.1" y1="188.5" x2="772.1" y2="223.6"/>
	<line class="st3" x1="1067.1" y1="202.3" x2="1067.1" y2="223.6"/>
</g>
</svg>
