<?xml version="1.0" encoding="utf-8"?>
<!-- Generator: Adobe Illustrator 24.2.1, SVG Export Plug-In . SVG Version: 6.00 Build 0)  -->
<svg version="1.1" id="Layer_1" xmlns="http://www.w3.org/2000/svg" xmlns:xlink="http://www.w3.org/1999/xlink" x="0px" y="0px"
	 viewBox="0 0 123.2 122.5" style="enable-background:new 0 0 123.2 122.5;" xml:space="preserve">
<style type="text/css">
	.st0{fill:none;stroke:#6ABD45;stroke-width:2;stroke-miterlimit:10;}
	.st1{clip-path:url(#SVGID_2_);}
	.st2{fill:none;stroke:#83378D;stroke-width:2;stroke-miterlimit:10;}
	.st3{clip-path:url(#SVGID_4_);}
	.st4{fill:none;stroke:#426DB1;stroke-width:2;stroke-miterlimit:10;}
	.st5{fill:none;stroke:#E22829;stroke-width:2;stroke-miterlimit:10;}
	.st6{clip-path:url(#SVGID_6_);}
</style>
<g>
	<circle class="st5" cx="61.6" cy="61.2" r="59.1"/>
	<g>
		<defs>
			<circle id="SVGID_5_" cx="61.6" cy="61.2" r="59.1"/>
		</defs>
		<clipPath id="SVGID_2_">
			<use xlink:href="#SVGID_5_"  style="overflow:visible;"/>
		</clipPath>
		<g class="st1">
			<path class="st5" d="M-14.7,43.5c0,0-7.5,19.4,3.3,27.3s23.3,2.7,27.3,18s-1.3,38.2,6,45.6s38.2,1,42.9,10.3"/>
			<path class="st5" d="M-7.5,36.3c0,0-7.5,19.4,3.3,27.3s23.3,2.7,27.3,18s-1.3,38.2,6,45.6s38.2,1,42.9,10.3"/>
			<path class="st5" d="M-0.2,29.1c0,0-7.5,19.4,3.3,27.3s23.3,2.7,27.3,18s-1.3,38.2,6,45.6c7.3,7.3,38.2,1,42.9,10.3"/>
			<path class="st5" d="M7,21.9c0,0-7.5,19.4,3.3,27.3s23.3,2.7,27.3,18s-1.3,38.2,6,45.6c7.3,7.3,38.2,1,42.9,10.3"/>
			<path class="st5" d="M14.2,14.7c0,0-7.5,19.4,3.3,27.3s23.3,2.7,27.3,18s-1.3,38.2,6,45.6c7.3,7.3,38.2,1,42.9,10.3"/>
			<path class="st5" d="M21.4,7.5c0,0-7.5,19.4,3.3,27.3S48,37.4,52,52.7S50.6,91,58,98.3c7.3,7.3,38.2,1,42.9,10.3"/>
			<path class="st5" d="M28.6,0.3c0,0-7.5,19.4,3.3,27.3s23.3,2.7,27.3,18s-1.3,38.2,6,45.6c7.3,7.3,38.2,1,42.9,10.3"/>
			<path class="st5" d="M35.8-6.9c0,0-7.5,19.4,3.3,27.3s23.3,2.7,27.3,18s-1.3,38.2,6,45.6c7.3,7.3,38.2,1,42.9,10.3"/>
			<path class="st5" d="M43-14.1c0,0-7.5,19.4,3.3,27.3s23.3,2.7,27.3,18c4,15.3-1.3,38.2,6,45.6c7.3,7.3,38.2,1,42.9,10.3"/>
			<path class="st5" d="M50.2-21.4c0,0-7.5,19.4,3.3,27.3s23.3,2.7,27.3,18c4,15.3-1.3,38.2,6,45.6s38.2,1,42.9,10.3"/>
			<path class="st5" d="M57.4-28.6c0,0-7.5,19.4,3.3,27.3S84,1.4,88,16.7s-1.3,38.2,6,45.6s38.2,1,42.9,10.3"/>
			<path class="st5" d="M64.6-35.8c0,0-7.5,19.4,3.3,27.3s23.3,2.7,27.3,18s-1.3,38.2,6,45.6c7.3,7.3,38.2,1,42.9,10.3"/>
			<path class="st5" d="M71.9-43c0,0-7.5,19.4,3.3,27.3s23.3,2.7,27.3,18s-1.3,38.2,6,45.6c7.3,7.3,38.2,1,42.9,10.3"/>
			<path class="st5" d="M79.1-50.2c0,0-7.5,19.4,3.3,27.3s23.3,2.7,27.3,18c4,15.3-1.3,38.2,6,45.6c7.3,7.3,38.2,1,42.9,10.3"/>
		</g>
	</g>
</g>
</svg>
