<?xml version="1.0" encoding="utf-8"?>
<!-- Generator: Adobe Illustrator 24.2.1, SVG Export Plug-In . SVG Version: 6.00 Build 0)  -->
<svg version="1.1" id="Layer_1" xmlns="http://www.w3.org/2000/svg" xmlns:xlink="http://www.w3.org/1999/xlink" x="0px" y="0px"
	 viewBox="0 0 123.2 122.5" style="enable-background:new 0 0 123.2 122.5;" xml:space="preserve">
<style type="text/css">
	.st0{fill:none;stroke:#6ABD45;stroke-width:2;stroke-miterlimit:10;}
	.st1{clip-path:url(#SVGID_2_);}
	.st2{fill:none;stroke:#83378D;stroke-width:2;stroke-miterlimit:10;}
	.st3{clip-path:url(#SVGID_4_);}
	.st4{fill:none;stroke:#426DB1;stroke-width:2;stroke-miterlimit:10;}
	.st5{fill:none;stroke:#E22829;stroke-width:2;stroke-miterlimit:10;}
	.st6{clip-path:url(#SVGID_6_);}
</style>
<g>
	<defs>
		<circle id="SVGID_1_" cx="61.5" cy="61.4" r="59.1"/>
	</defs>
	<clipPath id="SVGID_2_">
		<use xlink:href="#SVGID_1_"  style="overflow:visible;"/>
	</clipPath>
	<g class="st1">
		<line class="st2" x1="74.5" y1="-28" x2="-47.5" y2="94.1"/>
		<line class="st2" x1="82.5" y1="-22.2" x2="-39.6" y2="99.9"/>
		<line class="st2" x1="90.4" y1="-16.3" x2="-31.7" y2="105.8"/>
		<line class="st2" x1="98.3" y1="-10.5" x2="-23.8" y2="111.6"/>
		<line class="st2" x1="106.2" y1="-4.6" x2="-15.9" y2="117.4"/>
		<line class="st2" x1="114.1" y1="1.2" x2="-8" y2="123.3"/>
		<line class="st2" x1="122" y1="7.1" x2="-0.1" y2="129.1"/>
		<line class="st2" x1="129.9" y1="12.9" x2="7.8" y2="135"/>
		<line class="st2" x1="137.8" y1="18.8" x2="15.7" y2="140.8"/>
		<line class="st2" x1="145.7" y1="24.6" x2="23.7" y2="146.7"/>
		<line class="st2" x1="153.6" y1="30.4" x2="31.6" y2="152.5"/>
		<line class="st2" x1="161.5" y1="36.3" x2="39.5" y2="158.4"/>
		<line class="st2" x1="169.4" y1="42.1" x2="47.4" y2="164.2"/>
		<line class="st2" x1="177.4" y1="48" x2="55.3" y2="170.1"/>
	</g>
	<use xlink:href="#SVGID_1_"  style="overflow:visible;fill:none;stroke:#83378D;stroke-width:2;stroke-miterlimit:10;"/>
</g>
</svg>
